<?xml version="1.0" standalone="no"?>
<!DOCTYPE svg PUBLIC "-//W3C//DTD SVG 20010904//EN"
 "http://www.w3.org/TR/2001/REC-SVG-20010904/DTD/svg10.dtd">
<svg version="1.0" xmlns="http://www.w3.org/2000/svg"
 width="1600.000000pt" height="1600.000000pt" viewBox="0 0 1600.000000 1600.000000"
 preserveAspectRatio="xMidYMid meet">

<g transform="translate(0.000000,1600.000000) scale(0.100000,-0.100000)"
fill="#000000" stroke="none">
<path d="M7735 11663 c-27 -8 -63 -21 -80 -28 -16 -7 -46 -16 -66 -19 -110
-19 -400 -163 -533 -265 -147 -113 -291 -273 -394 -436 -75 -120 -163 -338
-203 -505 -10 -43 -13 -203 -14 -715 0 -753 9 -681 -95 -755 -35 -25 -81 -61
-103 -80 -22 -19 -61 -51 -87 -70 -167 -122 -303 -252 -298 -284 2 -12 14 -23
28 -27 32 -9 437 -9 468 -1 12 4 75 45 139 92 151 111 608 449 793 587 137
103 333 247 429 316 24 18 105 76 179 130 74 53 143 97 152 97 10 0 44 -18 76
-40 99 -68 283 -193 341 -230 70 -46 168 -113 323 -222 69 -49 197 -137 285
-198 216 -147 453 -315 605 -429 69 -52 141 -98 160 -103 19 -5 131 -5 248 -2
177 6 215 9 219 22 8 21 -7 42 -58 80 -24 18 -73 56 -109 85 -77 63 -246 192
-299 227 -60 41 -145 111 -155 127 -5 9 -10 311 -13 672 -4 694 -5 714 -54
883 -55 188 -211 446 -378 622 -70 75 -212 190 -288 234 -155 90 -343 174
-463 206 -36 9 -88 24 -116 32 -74 20 -568 18 -639 -3z m465 -433 c19 -6 61
-14 93 -20 104 -17 207 -63 350 -157 234 -155 401 -395 473 -678 l27 -110 1
-385 c1 -385 -3 -440 -34 -440 -9 0 -255 176 -441 316 -170 127 -261 195 -408
307 -96 73 -185 138 -198 145 -27 15 -42 9 -113 -45 -25 -19 -76 -57 -115 -85
-38 -28 -88 -68 -110 -88 -22 -20 -87 -73 -145 -117 -58 -44 -132 -100 -165
-126 -156 -120 -252 -193 -271 -207 -12 -8 -47 -34 -77 -57 -64 -49 -82 -53
-91 -20 -4 12 -4 200 -2 417 5 380 6 398 30 480 44 153 98 275 161 365 123
172 161 217 245 280 151 116 240 159 430 210 94 25 296 34 360 15z"/>
<path d="M8010 9409 c-19 -12 -53 -38 -76 -58 -50 -45 -226 -173 -429 -311
-49 -34 -106 -75 -125 -90 -37 -30 -70 -55 -140 -105 -23 -16 -58 -44 -78 -61
-21 -17 -76 -58 -123 -90 -103 -71 -189 -147 -189 -167 0 -8 7 -18 17 -21 20
-8 2359 -7 2379 1 36 14 -2 54 -136 143 -36 24 -89 64 -119 89 -30 25 -77 62
-106 81 -67 44 -262 200 -332 264 -30 27 -73 63 -97 80 -79 56 -160 120 -208
163 -67 61 -137 103 -172 103 -17 0 -47 -10 -66 -21z"/>
<path d="M2623 7865 c-82 -40 -120 -82 -135 -147 -13 -61 -1 -133 29 -168 37
-44 134 -85 263 -109 144 -28 227 -54 265 -85 26 -21 30 -31 30 -74 0 -59 -22
-89 -94 -124 -37 -19 -63 -23 -136 -23 -88 0 -99 3 -195 48 -36 17 -111 97
-122 129 -12 34 -44 37 -79 9 l-23 -19 24 -51 c90 -192 414 -273 617 -154 124
72 157 235 65 321 -66 60 -138 87 -317 117 -180 31 -228 59 -228 135 0 57 17
84 73 114 40 22 61 26 124 26 101 0 155 -24 221 -96 49 -54 52 -55 79 -43 24
12 27 17 23 46 -10 60 -80 125 -176 163 -39 15 -74 20 -144 20 -85 0 -98 -3
-164 -35z"/>
<path d="M4282 7876 c-156 -58 -234 -153 -267 -323 -16 -87 -16 -96 0 -169 22
-99 47 -147 112 -212 77 -78 182 -119 328 -129 194 -12 370 78 446 230 31 60
29 87 -7 101 -38 15 -53 6 -74 -42 -45 -104 -172 -189 -295 -199 -114 -9 -205
16 -292 79 -88 64 -130 168 -121 297 14 183 146 301 338 301 108 0 175 -26
237 -94 27 -29 56 -67 66 -85 15 -29 21 -32 45 -26 74 18 62 75 -39 176 -91
92 -163 119 -309 118 -84 0 -117 -5 -168 -23z"/>
<path d="M3272 7858 c-17 -17 -17 -759 0 -776 17 -17 639 -17 656 0 14 14 15
47 2 68 -8 13 -55 16 -287 20 l-278 5 -3 124 c-2 89 1 127 10 139 11 13 43 14
237 9 129 -3 234 -2 248 4 19 7 24 15 21 37 -3 24 -8 28 -53 34 -27 4 -140 7
-249 7 -154 0 -201 2 -207 13 -5 7 -8 63 -7 123 l3 110 269 3 c184 1 274 6
283 14 8 6 13 25 11 42 l-3 31 -320 3 c-241 2 -324 -1 -333 -10z"/>
<path d="M5024 7862 c-19 -11 -24 -439 -8 -530 24 -126 81 -199 199 -253 64
-30 78 -33 175 -33 101 -1 108 1 181 35 81 39 126 84 170 169 22 43 23 57 27
317 3 209 2 277 -8 288 -17 21 -67 19 -79 -2 -5 -10 -9 -121 -10 -248 -1 -126
-4 -246 -7 -265 -14 -77 -65 -142 -140 -180 -49 -25 -156 -36 -211 -21 -63 17
-134 70 -168 125 l-30 49 -4 261 c-1 144 -7 269 -12 279 -10 17 -54 23 -75 9z"/>
<path d="M5886 7855 c-10 -27 -7 -731 4 -759 7 -20 17 -26 38 -26 48 0 52 13
52 160 0 95 4 141 13 154 11 16 29 17 174 14 l162 -3 33 -32 c25 -25 42 -59
68 -135 44 -131 75 -169 146 -175 83 -8 147 51 110 102 -14 19 -15 19 -33 2
-11 -9 -34 -17 -51 -17 -28 0 -34 6 -57 53 -14 30 -25 59 -25 64 0 20 -42 108
-62 130 -11 12 -18 26 -14 31 3 5 34 23 68 40 75 37 105 73 120 146 22 103
-23 185 -128 237 -48 23 -57 24 -330 27 -252 3 -282 1 -288 -13z m563 -90
c100 -51 117 -175 32 -232 -55 -37 -96 -43 -293 -43 -175 0 -188 1 -198 19
-11 22 -14 240 -2 257 13 20 34 21 236 17 141 -3 207 -8 225 -18z"/>
<path d="M6792 7858 c-17 -17 -18 -758 0 -776 16 -16 63 -15 77 2 8 9 10 122
9 397 l-3 384 -35 3 c-19 2 -41 -3 -48 -10z"/>
<path d="M6947 7863 c-12 -11 -8 -60 6 -71 8 -7 72 -13 158 -14 l144 -3 5
-343 c5 -375 4 -365 65 -360 l30 3 5 348 c4 295 7 349 20 357 9 6 70 7 147 3
l132 -6 18 31 c30 53 28 55 170 -153 42 -60 101 -146 132 -190 l56 -80 5 -148
c5 -156 9 -167 56 -167 41 0 48 23 46 159 -1 128 -1 128 31 180 39 62 174 260
240 352 26 36 47 75 47 87 0 19 -6 22 -43 22 -51 0 -62 -10 -131 -120 -81
-128 -170 -252 -190 -264 -14 -8 -20 -8 -24 3 -2 7 -34 57 -70 110 -36 53 -87
130 -115 171 -27 41 -56 81 -65 88 -19 14 -98 16 -107 2 -4 -7 -12 -7 -25 0
-21 11 -732 14 -743 3z"/>
<path d="M9182 7843 c-17 -26 -92 -178 -92 -188 0 -5 -55 -125 -106 -231 -33
-70 -115 -252 -137 -307 -14 -34 2 -49 48 -45 27 3 34 12 75 93 l45 90 224 3
c165 2 227 -1 238 -10 8 -7 29 -42 45 -78 40 -86 54 -100 95 -100 38 0 51 20
35 53 -24 48 -92 198 -92 203 0 2 -20 46 -44 96 -24 51 -53 113 -64 138 -146
324 -137 310 -202 310 -42 0 -51 -4 -68 -27z m129 -200 c68 -140 119 -265 113
-275 -7 -11 -354 -10 -354 1 0 11 89 222 100 236 4 6 18 35 31 65 25 60 37 80
50 80 4 0 32 -48 60 -107z"/>
<path d="M10267 7863 c-15 -14 -7 -63 12 -73 11 -5 78 -10 148 -10 87 0 133
-4 141 -12 9 -9 12 -99 12 -343 0 -354 0 -355 50 -355 50 0 50 1 50 356 0 262
3 334 13 342 8 7 72 13 157 14 l145 3 9 27 c20 58 20 58 -374 58 -196 0 -360
-3 -363 -7z"/>
<path d="M11652 7858 c-17 -17 -17 -759 0 -776 15 -15 61 -15 76 0 9 9 12 93
12 315 0 256 2 303 14 303 8 0 18 -9 21 -20 12 -37 278 -575 293 -592 19 -23
94 -24 116 -3 14 14 67 119 229 456 31 63 61 127 66 142 26 68 31 22 31 -282
0 -340 -1 -335 61 -329 25 2 34 9 38 28 3 14 4 192 1 395 l-5 370 -49 3 c-67
4 -95 -4 -105 -31 -20 -53 -306 -623 -315 -629 -18 -13 -26 -9 -35 15 -35 88
-313 635 -326 641 -28 10 -110 7 -123 -6z"/>
<path d="M12747 7863 c-4 -3 -7 -178 -7 -388 0 -283 3 -384 12 -393 19 -19
424 -16 506 3 159 38 249 120 293 269 49 162 -14 363 -139 446 -92 61 -146 70
-416 70 -134 0 -246 -3 -249 -7z m541 -110 c92 -40 134 -88 158 -180 20 -75
20 -114 4 -188 -23 -101 -64 -150 -162 -195 -38 -17 -66 -20 -244 -20 -175 0
-203 2 -208 16 -3 9 -6 141 -6 294 0 249 2 280 17 296 15 15 35 16 201 9 165
-6 190 -9 240 -32z"/>
<path d="M9764 7410 c-27 -11 -37 -46 -17 -65 12 -12 52 -15 222 -15 208 0
231 4 231 37 0 7 -9 22 -20 33 -19 19 -33 20 -207 19 -104 0 -198 -4 -209 -9z"/>
<path d="M11088 7409 c-21 -12 -24 -52 -4 -68 9 -8 77 -11 222 -9 l209 3 3 30
c6 51 -11 55 -222 55 -111 0 -198 -5 -208 -11z"/>
<path d="M5993 5991 c-62 -29 -64 -44 -61 -416 l3 -319 25 -13 c20 -10 442
-13 2075 -13 1128 0 2067 3 2088 7 69 11 71 20 77 338 5 282 1 368 -16 385 -5
5 -41 17 -79 26 -65 16 -224 18 -2070 21 -1956 3 -2001 3 -2042 -16z"/>
</g>
</svg>
